<mxfile host="app.diagrams.net" modified="2021-10-13T18:45:36.522Z" agent="5.0 (Windows NT 10.0; Win64; x64) AppleWebKit/537.36 (KHTML, like Gecko) Chrome/93.0.4577.82 Safari/537.36 OPR/79.0.4143.73" etag="Wn8ntWDECYhAmeeIgAQb" version="15.5.2" type="github">
  <diagram id="C5RBs43oDa-KdzZeNtuy" name="Page-1">
    <mxGraphModel dx="659" dy="752" grid="1" gridSize="10" guides="1" tooltips="1" connect="1" arrows="1" fold="1" page="1" pageScale="1" pageWidth="827" pageHeight="1169" math="0" shadow="0">
      <root>
        <mxCell id="WIyWlLk6GJQsqaUBKTNV-0" />
        <mxCell id="WIyWlLk6GJQsqaUBKTNV-1" parent="WIyWlLk6GJQsqaUBKTNV-0" />
        <mxCell id="aDyjGHVkmx4bwb79sCjb-13" style="edgeStyle=orthogonalEdgeStyle;rounded=0;orthogonalLoop=1;jettySize=auto;html=1;entryX=0.5;entryY=0;entryDx=0;entryDy=0;" edge="1" parent="WIyWlLk6GJQsqaUBKTNV-1" source="aDyjGHVkmx4bwb79sCjb-0" target="aDyjGHVkmx4bwb79sCjb-5">
          <mxGeometry relative="1" as="geometry" />
        </mxCell>
        <mxCell id="aDyjGHVkmx4bwb79sCjb-0" value="START" style="ellipse;whiteSpace=wrap;html=1;" vertex="1" parent="WIyWlLk6GJQsqaUBKTNV-1">
          <mxGeometry x="280" y="40" width="120" height="80" as="geometry" />
        </mxCell>
        <mxCell id="aDyjGHVkmx4bwb79sCjb-1" value="STOP" style="ellipse;whiteSpace=wrap;html=1;" vertex="1" parent="WIyWlLk6GJQsqaUBKTNV-1">
          <mxGeometry x="280" y="710" width="120" height="80" as="geometry" />
        </mxCell>
        <mxCell id="aDyjGHVkmx4bwb79sCjb-11" style="edgeStyle=orthogonalEdgeStyle;rounded=0;orthogonalLoop=1;jettySize=auto;html=1;entryX=0.5;entryY=0;entryDx=0;entryDy=0;" edge="1" parent="WIyWlLk6GJQsqaUBKTNV-1" source="aDyjGHVkmx4bwb79sCjb-2" target="aDyjGHVkmx4bwb79sCjb-6">
          <mxGeometry relative="1" as="geometry" />
        </mxCell>
        <mxCell id="aDyjGHVkmx4bwb79sCjb-2" value="Wczytaj (a)" style="shape=parallelogram;perimeter=parallelogramPerimeter;whiteSpace=wrap;html=1;fixedSize=1;" vertex="1" parent="WIyWlLk6GJQsqaUBKTNV-1">
          <mxGeometry x="280" y="270" width="120" height="60" as="geometry" />
        </mxCell>
        <mxCell id="aDyjGHVkmx4bwb79sCjb-8" value="TAK" style="edgeStyle=orthogonalEdgeStyle;rounded=0;orthogonalLoop=1;jettySize=auto;html=1;entryX=0.5;entryY=0;entryDx=0;entryDy=0;" edge="1" parent="WIyWlLk6GJQsqaUBKTNV-1" source="aDyjGHVkmx4bwb79sCjb-3" target="aDyjGHVkmx4bwb79sCjb-7">
          <mxGeometry x="-0.6471" relative="1" as="geometry">
            <mxPoint as="offset" />
          </mxGeometry>
        </mxCell>
        <mxCell id="aDyjGHVkmx4bwb79sCjb-18" value="NIE" style="edgeStyle=orthogonalEdgeStyle;rounded=0;orthogonalLoop=1;jettySize=auto;html=1;" edge="1" parent="WIyWlLk6GJQsqaUBKTNV-1" source="aDyjGHVkmx4bwb79sCjb-3">
          <mxGeometry x="-0.9062" relative="1" as="geometry">
            <mxPoint x="340" y="250" as="targetPoint" />
            <Array as="points">
              <mxPoint x="540" y="520" />
              <mxPoint x="540" y="250" />
              <mxPoint x="340" y="250" />
            </Array>
            <mxPoint as="offset" />
          </mxGeometry>
        </mxCell>
        <mxCell id="aDyjGHVkmx4bwb79sCjb-3" value="a = 0" style="rhombus;whiteSpace=wrap;html=1;" vertex="1" parent="WIyWlLk6GJQsqaUBKTNV-1">
          <mxGeometry x="300" y="480" width="80" height="80" as="geometry" />
        </mxCell>
        <mxCell id="aDyjGHVkmx4bwb79sCjb-12" style="edgeStyle=orthogonalEdgeStyle;rounded=0;orthogonalLoop=1;jettySize=auto;html=1;entryX=0.5;entryY=0;entryDx=0;entryDy=0;" edge="1" parent="WIyWlLk6GJQsqaUBKTNV-1" source="aDyjGHVkmx4bwb79sCjb-5" target="aDyjGHVkmx4bwb79sCjb-2">
          <mxGeometry relative="1" as="geometry" />
        </mxCell>
        <mxCell id="aDyjGHVkmx4bwb79sCjb-5" value="suma =0" style="rounded=0;whiteSpace=wrap;html=1;" vertex="1" parent="WIyWlLk6GJQsqaUBKTNV-1">
          <mxGeometry x="280" y="160" width="120" height="60" as="geometry" />
        </mxCell>
        <mxCell id="aDyjGHVkmx4bwb79sCjb-10" style="edgeStyle=orthogonalEdgeStyle;rounded=0;orthogonalLoop=1;jettySize=auto;html=1;" edge="1" parent="WIyWlLk6GJQsqaUBKTNV-1" source="aDyjGHVkmx4bwb79sCjb-6" target="aDyjGHVkmx4bwb79sCjb-3">
          <mxGeometry relative="1" as="geometry" />
        </mxCell>
        <mxCell id="aDyjGHVkmx4bwb79sCjb-6" value="suma = suma + a" style="rounded=0;whiteSpace=wrap;html=1;" vertex="1" parent="WIyWlLk6GJQsqaUBKTNV-1">
          <mxGeometry x="280" y="380" width="120" height="60" as="geometry" />
        </mxCell>
        <mxCell id="aDyjGHVkmx4bwb79sCjb-17" style="edgeStyle=orthogonalEdgeStyle;rounded=0;orthogonalLoop=1;jettySize=auto;html=1;entryX=0.5;entryY=0;entryDx=0;entryDy=0;" edge="1" parent="WIyWlLk6GJQsqaUBKTNV-1" source="aDyjGHVkmx4bwb79sCjb-7" target="aDyjGHVkmx4bwb79sCjb-1">
          <mxGeometry relative="1" as="geometry">
            <Array as="points">
              <mxPoint x="180" y="650" />
              <mxPoint x="340" y="650" />
            </Array>
          </mxGeometry>
        </mxCell>
        <mxCell id="aDyjGHVkmx4bwb79sCjb-7" value="Wypisz (suma)" style="shape=parallelogram;perimeter=parallelogramPerimeter;whiteSpace=wrap;html=1;fixedSize=1;" vertex="1" parent="WIyWlLk6GJQsqaUBKTNV-1">
          <mxGeometry x="120" y="570" width="120" height="60" as="geometry" />
        </mxCell>
      </root>
    </mxGraphModel>
  </diagram>
</mxfile>
